<svg xmlns="http://www.w3.org/2000/svg" width="28" height="28" viewBox="0 0 100 100">
  
  <ellipse cx="50" cy="58" rx="28" ry="24" fill="#c9a87a" stroke="#1e80c7" stroke-width="2.5"></ellipse>
  
  <circle cx="50" cy="35" r="18" fill="#c9a87a" stroke="#1e80c7" stroke-width="2.5"></circle>
  
  <ellipse cx="40" cy="24" rx="5" ry="8" fill="#c9a87a" stroke="#1e80c7" stroke-width="2"></ellipse>
  <ellipse cx="60" cy="24" rx="5" ry="8" fill="#c9a87a" stroke="#1e80c7" stroke-width="2"></ellipse>
  
  <circle cx="44" cy="32" r="2.5" fill="#000000"></circle>
  <circle cx="56" cy="32" r="2.5" fill="#000000"></circle>
  
  <ellipse cx="50" cy="40" rx="4" ry="3" fill="#704f3d"></ellipse>
  
  <path d="M 46 42 Q 50 44 54 42" stroke="#704f3d" stroke-width="2" fill="none"></path>
  
  <rect x="38" y="75" width="8" height="15" rx="4" fill="#c9a87a" stroke="#1e80c7" stroke-width="2"></rect>
  <rect x="54" y="75" width="8" height="15" rx="4" fill="#c9a87a" stroke="#1e80c7" stroke-width="2"></rect>
  
  <rect x="62" y="50" width="14" height="22" rx="2" fill="#1e80c7" stroke="#000000" stroke-width="2"></rect>
  <rect x="64" y="52" width="10" height="16" fill="#ffffff"></rect>
  <circle cx="69" cy="70" r="1.5" fill="#cccccc"></circle>
  
  <ellipse cx="50" cy="12" rx="7" ry="5" fill="#ff9955" stroke="#1e80c7" stroke-width="1.5"></ellipse>
  <circle cx="50" cy="8" r="4" fill="#ff9955" stroke="#1e80c7" stroke-width="1.5"></circle>
  <path d="M 50 10 Q 48 13 49 15" stroke="#ff9955" stroke-width="3" fill="none" stroke-linecap="round"></path>
  <ellipse cx="47" cy="7" rx="2" ry="3" fill="#ff9955" stroke="#1e80c7" stroke-width="1"></ellipse>
  <ellipse cx="53" cy="7" rx="2" ry="3" fill="#ff9955" stroke="#1e80c7" stroke-width="1"></ellipse>
  <circle cx="48" cy="7" r="0.8" fill="#000000"></circle>
  <circle cx="52" cy="7" r="0.8" fill="#000000"></circle>
</svg>
